<?xml version="1.0" encoding="UTF-8"?>
<svg width="32" height="32" viewBox="0 0 32 32" fill="none" xmlns="http://www.w3.org/2000/svg">
  <path d="M15.8 0C15.8 0 17.2 4.7 17.2 7.3C17.2 9.8 15.4 11.7 12.9 11.7C10.4 11.7 8.5 9.8 8.5 7.3H5.3C5.3 11.5 8.9 15 13.1 15C17.3 15 20.8 11.5 20.8 7.3C20.8 4.7 19.6 0.3 19.6 0.3L15.8 0Z" fill="#F44336"/>
  <path d="M26.5 11.7C26.5 11.7 27.9 16.4 27.9 19C27.9 21.5 26.1 23.4 23.6 23.4C21.1 23.4 19.2 21.5 19.2 19H16C16 23.2 19.6 26.7 23.8 26.7C28 26.7 31.5 23.2 31.5 19C31.5 16.4 30.3 12 30.3 12L26.5 11.7Z" fill="#F44336"/>
  <path d="M12.8 16.7C12.8 16.7 14.1 21.4 14.1 24C14.1 26.5 12.3 28.4 9.8 28.4C7.3 28.4 5.4 26.5 5.4 24H2.2C2.2 28.2 5.8 31.7 10 31.7C14.2 31.7 17.7 28.2 17.7 24C17.7 21.4 16.5 17 16.5 17L12.8 16.7Z" fill="#F44336"/>
</svg> 