<?xml version="1.0" encoding="UTF-8"?>
<svg width="32" height="32" viewBox="0 0 32 32" fill="none" xmlns="http://www.w3.org/2000/svg">
  <path d="M27 0H5C3.93913 0 2.92172 0.421427 2.17157 1.17157C1.42143 1.92172 1 2.93913 1 4V28C1 29.0609 1.42143 30.0783 2.17157 30.8284C2.92172 31.5786 3.93913 32 5 32H27C28.0609 32 29.0783 31.5786 29.8284 30.8284C30.5786 30.0783 31 29.0609 31 28V4C31 2.93913 30.5786 1.92172 29.8284 1.17157C29.0783 0.421427 28.0609 0 27 0Z" fill="#1976D2"/>
  <path d="M16 5L7 14H11V17C11 17.5304 11.2107 18.0391 11.5858 18.4142C11.9609 18.7893 12.4696 19 13 19H19C19.5304 19 20.0391 18.7893 20.4142 18.4142C20.7893 18.0391 21 17.5304 21 17V14H25L16 5Z" fill="white"/>
  <path d="M12 21C12 20.4696 12.2107 19.9609 12.5858 19.5858C12.9609 19.2107 13.4696 19 14 19H18C18.5304 19 19.0391 19.2107 19.4142 19.5858C19.7893 19.9609 20 20.4696 20 21V27H12V21Z" fill="white"/>
</svg> 